<?xml version="1.0" encoding="UTF-8" standalone="no"?>
<!DOCTYPE svg PUBLIC "-//W3C//DTD SVG 1.1//EN"
 "http://www.w3.org/Graphics/SVG/1.1/DTD/svg11.dtd">
<!-- Generated by graphviz version 2.38.0 (20140413.2041)
 -->
<!-- Title: erd Pages: 1 -->
<svg width="2071pt" height="458pt"
 viewBox="0.00 0.00 2071.00 457.50" xmlns="http://www.w3.org/2000/svg" xmlns:xlink="http://www.w3.org/1999/xlink">
<g id="graph0" class="graph" transform="scale(1 1) rotate(0) translate(4 453.5)">
<title>erd</title>
<polygon fill="white" stroke="none" points="-4,4 -4,-453.5 2067,-453.5 2067,4 -4,4"/>
<!-- Query -->
<g id="node1" class="node"><title>Query</title>
<polygon fill="none" stroke="black" points="8.5,-396 8.5,-421 469.5,-421 469.5,-396 8.5,-396"/>
<text text-anchor="start" x="219.01" y="-404.6" font-family="Times,serif" font-weight="bold" font-size="16.00">Query</text>
<polygon fill="none" stroke="black" points="8.5,-371 8.5,-396 469.5,-396 469.5,-371 8.5,-371"/>
<text text-anchor="start" x="177.025" y="-378.6" font-family="Times,serif" font-size="16.00">node(id:ID!): Node</text>
<polygon fill="none" stroke="black" points="8.5,-346 8.5,-371 469.5,-371 469.5,-346 8.5,-346"/>
<text text-anchor="start" x="24.176" y="-353.6" font-family="Times,serif" font-size="16.00">user(before:String, after:String, first:Int, last:Int): UsersConnection</text>
<polygon fill="none" stroke="black" points="8.5,-321 8.5,-346 469.5,-346 469.5,-321 8.5,-321"/>
<text text-anchor="start" x="27.2672" y="-328.6" font-family="Times,serif" font-size="16.00">bug(before:String, after:String, first:Int, last:Int): BugsConnection</text>
<polygon fill="none" stroke="black" points="8.5,-296 8.5,-321 469.5,-321 469.5,-296 8.5,-296"/>
<text text-anchor="start" x="130.82" y="-303.6" font-family="Times,serif" font-size="16.00">findUser(username:String): Users</text>
<polygon fill="none" stroke="black" points="8.5,-271 8.5,-296 469.5,-296 469.5,-271 8.5,-271"/>
<text text-anchor="start" x="157.002" y="-278.6" font-family="Times,serif" font-size="16.00">findBug(_:String): Bugs_</text>
<polygon fill="none" stroke="black" points="8.5,-246 8.5,-271 469.5,-271 469.5,-246 8.5,-246"/>
<text text-anchor="start" x="11.292" y="-253.6" font-family="Times,serif" font-size="16.00">allUsers(before:String, after:String, first:Int, last:Int): UsersConnection</text>
<polygon fill="none" stroke="black" points="8.5,-221 8.5,-246 469.5,-246 469.5,-221 8.5,-221"/>
<text text-anchor="start" x="14.8232" y="-228.6" font-family="Times,serif" font-size="16.00">allBugs(before:String, after:String, first:Int, last:Int): BugsConnection</text>
</g>
<!-- UsersConnection -->
<g id="node2" class="node"><title>UsersConnection</title>
<polygon fill="none" stroke="black" points="521,-405 521,-430 657,-430 657,-405 521,-405"/>
<text text-anchor="start" x="533.904" y="-413.6" font-family="Times,serif" font-weight="bold" font-size="16.00">UsersConnection</text>
<polygon fill="none" stroke="black" points="521,-380 521,-405 657,-405 657,-380 521,-380"/>
<text text-anchor="start" x="524.809" y="-387.6" font-family="Times,serif" font-size="16.00">pageInfo: PageInfo!</text>
<polygon fill="none" stroke="black" points="521,-355 521,-380 657,-380 657,-355 521,-355"/>
<text text-anchor="start" x="523.923" y="-362.6" font-family="Times,serif" font-size="16.00">edges: [UsersEdge]!</text>
</g>
<!-- Query&#45;&gt;UsersConnection -->
<g id="edge1" class="edge"><title>Query:userport&#45;&gt;UsersConnection</title>
<path fill="none" stroke="black" d="M470.5,-359C481.15,-359 492.136,-360.305 502.918,-362.403"/>
<polygon fill="black" stroke="black" points="502.232,-365.836 512.747,-364.538 503.718,-358.995 502.232,-365.836"/>
</g>
<!-- Query&#45;&gt;UsersConnection -->
<g id="edge5" class="edge"><title>Query:allUsersport&#45;&gt;UsersConnection</title>
<path fill="none" stroke="black" d="M470.5,-258C501.042,-258 493.165,-288.776 513,-312 521.914,-322.437 531.71,-333.373 541.198,-343.713"/>
<polygon fill="black" stroke="black" points="538.68,-346.146 548.034,-351.121 543.824,-341.399 538.68,-346.146"/>
</g>
<!-- BugsConnection -->
<g id="node3" class="node"><title>BugsConnection</title>
<polygon fill="none" stroke="black" points="522,-274 522,-299 656,-299 656,-274 522,-274"/>
<text text-anchor="start" x="535.67" y="-282.6" font-family="Times,serif" font-weight="bold" font-size="16.00">BugsConnection</text>
<polygon fill="none" stroke="black" points="522,-249 522,-274 656,-274 656,-249 522,-249"/>
<text text-anchor="start" x="524.809" y="-256.6" font-family="Times,serif" font-size="16.00">pageInfo: PageInfo!</text>
<polygon fill="none" stroke="black" points="522,-224 522,-249 656,-249 656,-224 522,-224"/>
<text text-anchor="start" x="525.689" y="-231.6" font-family="Times,serif" font-size="16.00">edges: [BugsEdge]!</text>
</g>
<!-- Query&#45;&gt;BugsConnection -->
<g id="edge2" class="edge"><title>Query:bugport&#45;&gt;BugsConnection</title>
<path fill="none" stroke="black" d="M470.5,-334C494.362,-334 517.467,-323.071 536.782,-309.728"/>
<polygon fill="black" stroke="black" points="539.073,-312.389 545.097,-303.674 534.953,-306.73 539.073,-312.389"/>
</g>
<!-- Query&#45;&gt;BugsConnection -->
<g id="edge6" class="edge"><title>Query:allBugsport&#45;&gt;BugsConnection</title>
<path fill="none" stroke="black" d="M470.5,-233C481.359,-233 492.622,-234.182 503.683,-236.068"/>
<polygon fill="black" stroke="black" points="503.29,-239.556 513.768,-237.985 504.597,-232.679 503.29,-239.556"/>
</g>
<!-- Users -->
<g id="node4" class="node"><title>Users</title>
<polygon fill="none" stroke="black" points="1023.5,-161 1023.5,-186 1466.5,-186 1466.5,-161 1023.5,-161"/>
<text text-anchor="start" x="1226.79" y="-169.6" font-family="Times,serif" font-weight="bold" font-size="16.00">Users</text>
<polygon fill="none" stroke="black" points="1023.5,-136 1023.5,-161 1466.5,-161 1466.5,-136 1023.5,-136"/>
<text text-anchor="start" x="1223.45" y="-143.6" font-family="Times,serif" font-size="16.00">id: ID!</text>
<polygon fill="none" stroke="black" points="1023.5,-111 1023.5,-136 1466.5,-136 1466.5,-111 1023.5,-111"/>
<text text-anchor="start" x="1190.57" y="-118.6" font-family="Times,serif" font-size="16.00">username: String</text>
<polygon fill="none" stroke="black" points="1023.5,-86 1023.5,-111 1466.5,-111 1466.5,-86 1023.5,-86"/>
<text text-anchor="start" x="1026.16" y="-93.6" font-family="Times,serif" font-size="16.00">bugs(before:String, after:String, first:Int, last:Int): Bugs_Connection</text>
</g>
<!-- Query&#45;&gt;Users -->
<g id="edge3" class="edge"><title>Query:findUserport&#45;&gt;Users</title>
<path fill="none" stroke="black" d="M470.5,-308C517.568,-308 477.881,-242.337 513,-211 629.89,-106.699 695.798,-132.318 851,-111 900.545,-104.195 953.868,-103.33 1004.75,-105.563"/>
<polygon fill="black" stroke="black" points="1004.74,-109.066 1014.89,-106.05 1005.07,-102.074 1004.74,-109.066"/>
</g>
<!-- Bugs_ -->
<g id="node5" class="node"><title>Bugs_</title>
<polygon fill="none" stroke="black" points="1943,-129 1943,-154 2055,-154 2055,-129 1943,-129"/>
<text text-anchor="start" x="1978.55" y="-137.6" font-family="Times,serif" font-weight="bold" font-size="16.00">Bugs_</text>
<polygon fill="none" stroke="black" points="1943,-104 1943,-129 2055,-129 2055,-104 1943,-104"/>
<text text-anchor="start" x="1977.45" y="-111.6" font-family="Times,serif" font-size="16.00">id: ID!</text>
<polygon fill="none" stroke="black" points="1943,-79 1943,-104 2055,-104 2055,-79 1943,-79"/>
<text text-anchor="start" x="1953.91" y="-86.6" font-family="Times,serif" font-size="16.00">reporterId: Int</text>
<polygon fill="none" stroke="black" points="1943,-54 1943,-79 2055,-79 2055,-54 1943,-54"/>
<text text-anchor="start" x="1963.22" y="-61.6" font-family="Times,serif" font-size="16.00">text: String</text>
<polygon fill="none" stroke="black" points="1943,-29 1943,-54 2055,-54 2055,-29 1943,-29"/>
<text text-anchor="start" x="1945.9" y="-36.6" font-family="Times,serif" font-size="16.00">private: Boolean</text>
<polygon fill="none" stroke="black" points="1943,-4 1943,-29 2055,-29 2055,-4 1943,-4"/>
<text text-anchor="start" x="1951.25" y="-11.6" font-family="Times,serif" font-size="16.00">reporter: Users</text>
</g>
<!-- Query&#45;&gt;Bugs_ -->
<g id="edge4" class="edge"><title>Query:findBugport&#45;&gt;Bugs_</title>
<path fill="none" stroke="black" d="M470.5,-283C542.36,-283 462.819,-178.437 513,-127 592.045,-45.9766 643.806,-54 757,-54 757,-54 757,-54 1589,-54 1706.51,-54 1842.66,-64.4088 1924.47,-71.7938"/>
<polygon fill="black" stroke="black" points="1924.39,-75.3006 1934.66,-72.7237 1925.02,-68.3296 1924.39,-75.3006"/>
</g>
<!-- PageInfo -->
<g id="node6" class="node"><title>PageInfo</title>
<polygon fill="none" stroke="black" points="1710.5,-420 1710.5,-445 1891.5,-445 1891.5,-420 1710.5,-420"/>
<text text-anchor="start" x="1772.12" y="-428.6" font-family="Times,serif" font-weight="bold" font-size="16.00">PageInfo</text>
<polygon fill="none" stroke="black" points="1710.5,-395 1710.5,-420 1891.5,-420 1891.5,-395 1710.5,-395"/>
<text text-anchor="start" x="1725.69" y="-402.6" font-family="Times,serif" font-size="16.00">hasNextPage: Boolean!</text>
<polygon fill="none" stroke="black" points="1710.5,-370 1710.5,-395 1891.5,-395 1891.5,-370 1710.5,-370"/>
<text text-anchor="start" x="1713.24" y="-377.6" font-family="Times,serif" font-size="16.00">hasPreviousPage: Boolean!</text>
<polygon fill="none" stroke="black" points="1710.5,-345 1710.5,-370 1891.5,-370 1891.5,-345 1710.5,-345"/>
<text text-anchor="start" x="1741.68" y="-352.6" font-family="Times,serif" font-size="16.00">startCursor: String</text>
<polygon fill="none" stroke="black" points="1710.5,-320 1710.5,-345 1891.5,-345 1891.5,-320 1710.5,-320"/>
<text text-anchor="start" x="1743.9" y="-327.6" font-family="Times,serif" font-size="16.00">endCursor: String</text>
</g>
<!-- UsersConnection&#45;&gt;PageInfo -->
<g id="edge7" class="edge"><title>UsersConnection:pageInfoport&#45;&gt;PageInfo</title>
<path fill="none" stroke="black" d="M658,-392C772.505,-392 799.495,-421 914,-421 914,-421 914,-421 1245.5,-421 1400.69,-421 1579.76,-405.975 1691.32,-394.82"/>
<polygon fill="black" stroke="black" points="1691.97,-398.273 1701.57,-393.788 1691.27,-391.308 1691.97,-398.273"/>
</g>
<!-- UsersEdge -->
<g id="node7" class="node"><title>UsersEdge</title>
<polygon fill="none" stroke="black" points="866,-325 866,-350 964,-350 964,-325 866,-325"/>
<text text-anchor="start" x="880.35" y="-333.6" font-family="Times,serif" font-weight="bold" font-size="16.00">UsersEdge</text>
<polygon fill="none" stroke="black" points="866,-300 866,-325 964,-325 964,-300 866,-300"/>
<text text-anchor="start" x="877.014" y="-307.6" font-family="Times,serif" font-size="16.00">node: Users</text>
<polygon fill="none" stroke="black" points="866,-275 866,-300 964,-300 964,-275 866,-275"/>
<text text-anchor="start" x="868.568" y="-282.6" font-family="Times,serif" font-size="16.00">cursor: String!</text>
</g>
<!-- UsersConnection&#45;&gt;UsersEdge -->
<g id="edge8" class="edge"><title>UsersConnection:edgesport&#45;&gt;UsersEdge</title>
<path fill="none" stroke="black" d="M658,-367C723.715,-367 796.916,-349.753 848.153,-334.754"/>
<polygon fill="black" stroke="black" points="849.193,-338.096 857.778,-331.887 847.195,-331.387 849.193,-338.096"/>
</g>
<!-- BugsConnection&#45;&gt;PageInfo -->
<g id="edge9" class="edge"><title>BugsConnection:pageInfoport&#45;&gt;PageInfo</title>
<path fill="none" stroke="black" d="M657,-261C754.621,-261 756.512,-339.465 851,-364 1006.77,-404.448 1477.45,-394.214 1691.48,-387.106"/>
<polygon fill="black" stroke="black" points="1691.91,-390.594 1701.78,-386.76 1691.67,-383.598 1691.91,-390.594"/>
</g>
<!-- BugsEdge -->
<g id="node8" class="node"><title>BugsEdge</title>
<polygon fill="none" stroke="black" points="709,-216 709,-241 807,-241 807,-216 709,-216"/>
<text text-anchor="start" x="725.115" y="-224.6" font-family="Times,serif" font-weight="bold" font-size="16.00">BugsEdge</text>
<polygon fill="none" stroke="black" points="709,-191 709,-216 807,-216 807,-191 709,-191"/>
<text text-anchor="start" x="721.779" y="-198.6" font-family="Times,serif" font-size="16.00">node: Bugs</text>
<polygon fill="none" stroke="black" points="709,-166 709,-191 807,-191 807,-166 709,-166"/>
<text text-anchor="start" x="711.568" y="-173.6" font-family="Times,serif" font-size="16.00">cursor: String!</text>
</g>
<!-- BugsConnection&#45;&gt;BugsEdge -->
<g id="edge10" class="edge"><title>BugsConnection:edgesport&#45;&gt;BugsEdge</title>
<path fill="none" stroke="black" d="M657,-236C668.279,-236 679.947,-234.131 691.158,-231.295"/>
<polygon fill="black" stroke="black" points="692.184,-234.643 700.871,-228.578 690.298,-227.902 692.184,-234.643"/>
</g>
<!-- Bugs_Connection -->
<g id="node9" class="node"><title>Bugs_Connection</title>
<polygon fill="none" stroke="black" points="1518,-162 1518,-187 1658,-187 1658,-162 1518,-162"/>
<text text-anchor="start" x="1530.67" y="-170.6" font-family="Times,serif" font-weight="bold" font-size="16.00">Bugs_Connection</text>
<polygon fill="none" stroke="black" points="1518,-137 1518,-162 1658,-162 1658,-137 1518,-137"/>
<text text-anchor="start" x="1523.81" y="-144.6" font-family="Times,serif" font-size="16.00">pageInfo: PageInfo!</text>
<polygon fill="none" stroke="black" points="1518,-112 1518,-137 1658,-137 1658,-112 1518,-112"/>
<text text-anchor="start" x="1520.69" y="-119.6" font-family="Times,serif" font-size="16.00">edges: [Bugs_Edge]!</text>
</g>
<!-- Users&#45;&gt;Bugs_Connection -->
<g id="edge11" class="edge"><title>Users:bugsport&#45;&gt;Bugs_Connection</title>
<path fill="none" stroke="black" d="M1467.5,-98C1480.75,-98 1494.2,-100.722 1507.05,-104.92"/>
<polygon fill="black" stroke="black" points="1506.16,-108.318 1516.75,-108.398 1508.52,-101.729 1506.16,-108.318"/>
</g>
<!-- Bugs_&#45;&gt;Users -->
<g id="edge12" class="edge"><title>Bugs_:reporterport&#45;&gt;Users</title>
<path fill="none" stroke="black" d="M1942,-16C1778.44,-16 1596.37,-48.5362 1459.41,-79.725"/>
<polygon fill="black" stroke="black" points="1458.59,-76.3215 1449.63,-81.9678 1460.15,-83.1444 1458.59,-76.3215"/>
</g>
<!-- UsersEdge&#45;&gt;Users -->
<g id="edge13" class="edge"><title>UsersEdge:nodeport&#45;&gt;Users</title>
<path fill="none" stroke="black" d="M965,-312C1053.22,-312 1136.24,-248.107 1188.29,-197.314"/>
<polygon fill="black" stroke="black" points="1190.79,-199.767 1195.43,-190.242 1185.86,-194.794 1190.79,-199.767"/>
</g>
<!-- Bugs -->
<g id="node10" class="node"><title>Bugs</title>
<polygon fill="none" stroke="black" points="859,-224 859,-249 971,-249 971,-224 859,-224"/>
<text text-anchor="start" x="898.554" y="-232.6" font-family="Times,serif" font-weight="bold" font-size="16.00">Bugs</text>
<polygon fill="none" stroke="black" points="859,-199 859,-224 971,-224 971,-199 859,-199"/>
<text text-anchor="start" x="893.452" y="-206.6" font-family="Times,serif" font-size="16.00">id: ID!</text>
<polygon fill="none" stroke="black" points="859,-174 859,-199 971,-199 971,-174 859,-174"/>
<text text-anchor="start" x="869.912" y="-181.6" font-family="Times,serif" font-size="16.00">reporterId: Int</text>
<polygon fill="none" stroke="black" points="859,-149 859,-174 971,-174 971,-149 859,-149"/>
<text text-anchor="start" x="861.904" y="-156.6" font-family="Times,serif" font-size="16.00">private: Boolean</text>
<polygon fill="none" stroke="black" points="859,-124 859,-149 971,-149 971,-124 859,-124"/>
<text text-anchor="start" x="867.25" y="-131.6" font-family="Times,serif" font-size="16.00">reporter: Users</text>
</g>
<!-- BugsEdge&#45;&gt;Bugs -->
<g id="edge14" class="edge"><title>BugsEdge:nodeport&#45;&gt;Bugs</title>
<path fill="none" stroke="black" d="M808,-203C818.687,-203 829.913,-202.195 840.898,-200.946"/>
<polygon fill="black" stroke="black" points="841.413,-204.409 850.896,-199.685 840.537,-197.464 841.413,-204.409"/>
</g>
<!-- Bugs_Connection&#45;&gt;PageInfo -->
<g id="edge15" class="edge"><title>Bugs_Connection:pageInfoport&#45;&gt;PageInfo</title>
<path fill="none" stroke="black" d="M1659,-149C1696.51,-149 1741.35,-238.479 1770.12,-306.774"/>
<polygon fill="black" stroke="black" points="1766.99,-308.372 1774.07,-316.258 1773.45,-305.681 1766.99,-308.372"/>
</g>
<!-- Bugs_Edge -->
<g id="node11" class="node"><title>Bugs_Edge</title>
<polygon fill="none" stroke="black" points="1751.5,-136 1751.5,-161 1849.5,-161 1849.5,-136 1751.5,-136"/>
<text text-anchor="start" x="1763.62" y="-144.6" font-family="Times,serif" font-weight="bold" font-size="16.00">Bugs_Edge</text>
<polygon fill="none" stroke="black" points="1751.5,-111 1751.5,-136 1849.5,-136 1849.5,-111 1751.5,-111"/>
<text text-anchor="start" x="1760.28" y="-118.6" font-family="Times,serif" font-size="16.00">node: Bugs_</text>
<polygon fill="none" stroke="black" points="1751.5,-86 1751.5,-111 1849.5,-111 1849.5,-86 1751.5,-86"/>
<text text-anchor="start" x="1754.07" y="-93.6" font-family="Times,serif" font-size="16.00">cursor: String!</text>
</g>
<!-- Bugs_Connection&#45;&gt;Bugs_Edge -->
<g id="edge16" class="edge"><title>Bugs_Connection:edgesport&#45;&gt;Bugs_Edge</title>
<path fill="none" stroke="black" d="M1659,-124C1683.22,-124 1709.79,-124 1733.25,-124"/>
<polygon fill="black" stroke="black" points="1733.44,-127.5 1743.44,-124 1733.44,-120.5 1733.44,-127.5"/>
</g>
<!-- Bugs&#45;&gt;Users -->
<g id="edge17" class="edge"><title>Bugs:reporterport&#45;&gt;Users</title>
<path fill="none" stroke="black" d="M972,-136C982.646,-136 993.527,-136 1004.52,-136"/>
<polygon fill="black" stroke="black" points="1004.64,-139.5 1014.64,-136 1004.64,-132.5 1004.64,-139.5"/>
</g>
<!-- Bugs_Edge&#45;&gt;Bugs_ -->
<g id="edge18" class="edge"><title>Bugs_Edge:nodeport&#45;&gt;Bugs_</title>
<path fill="none" stroke="black" d="M1850.5,-123C1875.51,-123 1901.95,-117.118 1925.44,-109.654"/>
<polygon fill="black" stroke="black" points="1926.57,-112.964 1934.96,-106.491 1924.37,-106.321 1926.57,-112.964"/>
</g>
</g>
</svg>
